<?xml version="1.0" encoding="UTF-8"?>
<svg width="512px" height="512px" viewBox="0 0 512 512" version="1.1" xmlns="http://www.w3.org/2000/svg" xmlns:xlink="http://www.w3.org/1999/xlink">
    <title>Slice 1</title>
    <g id="页面-1" stroke="none" stroke-width="1" fill="none" fill-rule="evenodd">
        <g id="discord" fill-rule="nonzero">
            <circle id="ellipse" fill="#D4DFF1" cx="256" cy="256" r="256"></circle>
            <path d="M372.4,168.7 C372.4,168.7 339.1,142.6 299.7,139.6 L296.2,146.7 C331.8,155.4 348.1,167.9 365.2,183.2 C335.8,168.2 306.7,154.1 256.1,154.1 C205.5,154.1 176.4,168.2 147,183.2 C164.1,167.9 183.5,154 216,146.7 L212.5,139.6 C171.2,143.5 139.8,168.7 139.8,168.7 C139.8,168.7 102.6,222.7 96.2,328.7 C133.7,372 190.7,372.3 190.7,372.3 L202.6,356.4 C182.4,349.4 159.5,336.8 139.8,314.1 C163.3,331.9 198.9,350.5 256.2,350.5 C313.5,350.5 349,332 372.6,314.1 C352.9,336.8 330,349.4 309.8,356.4 L321.7,372.3 C321.7,372.3 378.7,372 416.2,328.7 C409.6,222.7 372.4,168.7 372.4,168.7 Z M208.7,299.6 C194.6,299.6 183.2,286.6 183.2,270.5 C183.2,254.4 194.6,241.4 208.7,241.4 C222.8,241.4 234.2,254.4 234.2,270.5 C234.2,286.6 222.8,299.6 208.7,299.6 Z M303.3,299.6 C289.2,299.6 277.8,286.6 277.8,270.5 C277.8,254.4 289.2,241.4 303.3,241.4 C317.4,241.4 328.8,254.4 328.8,270.5 C328.8,286.6 317.3,299.6 303.3,299.6 Z" id="logo" fill="#2F3B4E"></path>
        </g>
    </g>
</svg>