<?xml version="1.0" encoding="UTF-8"?>
<svg width="512px" height="407px" viewBox="0 0 512 407" version="1.1" xmlns="http://www.w3.org/2000/svg" xmlns:xlink="http://www.w3.org/1999/xlink">
    <title>Slice 1</title>
    <g id="页面-1" stroke="none" stroke-width="1" fill="none" fill-rule="evenodd">
        <g id="medium" transform="translate(0.000000, 0.666667)" fill="#D4DFF1" fill-rule="nonzero">
            <path d="M471.146667,48.304 L512,9.22133333 L512,0.666666667 L370.474667,0.666666667 L269.610667,251.717333 L154.858667,0.666666667 L6.464,0.666666667 L6.464,9.22133333 L54.1866667,66.672 C58.8373333,70.9173333 61.2693333,77.1253333 60.6506667,83.376 L60.6506667,309.146667 C62.1226667,317.274667 59.4773333,325.637333 53.76,331.546667 L0,396.698667 L0,405.146667 L152.426667,405.146667 L152.426667,396.592 L98.6666667,331.546667 C92.8426667,325.616 90.0906667,317.402667 91.264,309.146667 L91.264,113.861333 L225.066667,405.253333 L240.618667,405.253333 L355.669333,113.861333 L355.669333,345.989333 C355.669333,352.112 355.669333,353.370667 351.658667,357.381333 L310.272,397.424 L310.272,406 L511.061333,406 L511.061333,397.445333 L471.168,358.384 C467.669333,355.738667 465.856,351.301333 466.602667,346.992 L466.602667,59.696 C465.856,55.3653333 467.648,50.928 471.146667,48.304 L471.146667,48.304 Z" id="路径"></path>
        </g>
    </g>
</svg>