<?xml version="1.0" encoding="UTF-8"?>
<svg width="512px" height="512px" viewBox="0 0 512 512" version="1.1" xmlns="http://www.w3.org/2000/svg" xmlns:xlink="http://www.w3.org/1999/xlink">
    <title>Slice 1</title>
    <g id="页面-1" stroke="none" stroke-width="1" fill="none" fill-rule="evenodd">
        <g id="twitter">
            <rect id="矩形备份" fill="#303C50" x="0" y="0" width="512" height="512" rx="256"></rect>
            <path d="M256,0 C114.636719,0 0,114.636719 0,256 C0,397.363281 114.636719,512 256,512 C397.363281,512 512,397.363281 512,256 C512,114.636719 397.363281,0 256,0 Z M372.886719,199.601562 C373,202.121094 373.054688,204.652344 373.054688,207.195312 C373.054688,284.839844 313.953125,374.375 205.871094,374.378906 L205.875,374.378906 L205.871094,374.378906 C172.6875,374.378906 141.808594,364.652344 115.804688,347.984375 C120.402344,348.527344 125.082031,348.796875 129.820312,348.796875 C157.351562,348.796875 182.6875,339.40625 202.800781,323.644531 C177.078125,323.167969 155.390625,306.179688 147.90625,282.832031 C151.488281,283.519531 155.171875,283.894531 158.949219,283.894531 C164.3125,283.894531 169.507812,283.171875 174.445312,281.824219 C147.558594,276.441406 127.304688,252.679688 127.304688,224.226562 C127.304688,223.960938 127.304688,223.722656 127.3125,223.476562 C135.230469,227.878906 144.285156,230.527344 153.925781,230.824219 C138.148438,220.296875 127.777344,202.300781 127.777344,181.914062 C127.777344,171.148438 130.6875,161.0625 135.734375,152.378906 C164.710938,187.933594 208.015625,211.316406 256.851562,213.773438 C255.84375,209.46875 255.324219,204.984375 255.324219,200.375 C255.324219,167.9375 281.640625,141.621094 314.089844,141.621094 C330.992188,141.621094 346.257812,148.765625 356.980469,160.1875 C370.367188,157.546875 382.9375,152.65625 394.292969,145.925781 C389.898438,159.640625 380.585938,171.148438 368.453125,178.425781 C380.339844,177.003906 391.667969,173.851562 402.195312,169.171875 C394.332031,180.957031 384.359375,191.308594 372.886719,199.601562 Z" id="path10" fill="#DFEBFF" fill-rule="nonzero"></path>
        </g>
    </g>
</svg>